<svg width="40" height="39" viewBox="0 0 40 39" fill="none" xmlns="http://www.w3.org/2000/svg">
<path d="M27.3578 29.3723C25.189 33.165 22.5007 36.2741 19.4961 36.208C17.621 36.1638 15.8363 35.4803 14.2098 34.3998C14.7294 33.4737 18.0051 28.8431 27.3578 29.3723ZM39.941 19.5598C39.8958 30.2984 30.9046 38.9863 19.8801 38.9202C8.85569 38.8761 0 30.122 0 19.3834C0 12.4154 3.56939 7.4099 6.95803 4.71974C11.1148 1.43421 13.9387 3.94797 14.9327 5.86637C14.8197 5.0505 14.4809 2.71314 13.5546 1.0373C15.5878 0.35373 17.7792 -0.0211294 20.0609 0.000920628C31.0853 0.0670726 39.9861 8.79909 39.941 19.5598ZM18.9087 8.35808C21.8004 6.43968 26.793 5.38125 29.4361 9.39445C27.8322 0.221426 20.8967 5.49151 18.9087 8.35808ZM14.8875 17.024C15.4975 16.3625 16.1978 15.7009 17.0111 15.1056C20.6256 12.3934 24.5791 11.7098 25.8668 13.6061C26.3638 14.3338 26.3863 15.3481 26.0023 16.4507C27.29 14.3779 27.6966 12.4595 26.9059 11.4011C25.5731 9.63696 21.4389 10.8498 17.6662 14.1133C16.5592 15.0174 15.633 16.0317 14.8875 17.024ZM8.5846 18.6557C10.4145 18.9865 12.4025 16.7153 13.0125 13.54C13.6224 10.3647 12.651 7.54221 10.8211 7.1894C8.99123 6.85864 7.00321 9.12985 6.39326 12.3052C5.7833 15.4584 6.75472 18.3029 8.5846 18.6557ZM34.0221 14.8189C16.5141 26.2632 4.42785 20.4639 4.42785 20.4639C4.24712 24.433 11.2278 36.6269 19.5413 36.7813C27.8774 36.9356 34.0221 14.8189 34.0221 14.8189ZM6.89026 12.3713C7.45504 9.4606 9.17196 7.34375 10.7308 7.65246C12.2895 7.93912 13.1028 10.5411 12.5606 13.4518C11.9959 16.3625 10.2789 18.4793 8.72014 18.1706C7.13877 17.884 6.32549 15.282 6.89026 12.3713ZM10.2112 14.841C10.9115 14.9953 11.6796 14.1574 11.9507 12.9887C12.2218 11.8201 11.8603 10.7396 11.16 10.6073C10.6856 10.497 10.1886 10.8498 9.82708 11.4452C10.1434 11.5995 10.3015 11.9965 10.1434 12.3272C10.0079 12.6359 9.69158 12.7903 9.37528 12.7241C9.23974 13.7605 9.57858 14.6866 10.2112 14.841Z" fill="#05BC52"/>
</svg>
